<?xml version="1.0" encoding="utf-8"?>
<!-- Generator: Adobe Illustrator 27.5.0, SVG Export Plug-In . SVG Version: 6.00 Build 0)  -->
<svg version="1.1" id="Layer_1" xmlns="http://www.w3.org/2000/svg" xmlns:xlink="http://www.w3.org/1999/xlink" x="0px" y="0px"
	 viewBox="0 0 198.46 184.04" style="enable-background:new 0 0 198.46 184.04;" xml:space="preserve">
<g>
	<polygon style="fill:#007BD0;" points="59.6,111.514 4.962,67.871 75.745,65.958 99.23,4.601 122.716,65.958 193.499,67.871 
		138.861,111.514 156.567,179.439 99.23,142.265 41.893,179.439 	"/>
	<g>
		<linearGradient id="SVGID_1_" gradientUnits="userSpaceOnUse" x1="146.0349" y1="82.6811" x2="146.0349" y2="51.0367">
			<stop  offset="0.0063" style="stop-color:#FFFFFF"/>
			<stop  offset="0.9983" style="stop-color:#573027"/>
		</linearGradient>
		<polygon style="opacity:0.26;fill:url(#SVGID_1_);" points="192.426,67.842 122.72,65.958 99.644,98.356 		"/>
		
			<linearGradient id="SVGID_00000127742044074795038820000004076528681586588557_" gradientUnits="userSpaceOnUse" x1="110.9752" y1="97.5848" x2="110.9752" y2="-70.7356">
			<stop  offset="0" style="stop-color:#FFFFFF"/>
			<stop  offset="0.9939" style="stop-color:#CDADA4"/>
		</linearGradient>
		<polygon style="opacity:0.6;fill:url(#SVGID_00000127742044074795038820000004076528681586588557_);" points="99.644,98.356 
			122.72,65.958 122.716,65.958 99.23,4.601 99.23,98.492 		"/>
		
			<linearGradient id="SVGID_00000158723509340128982860000017895435324833011385_" gradientUnits="userSpaceOnUse" x1="120.9202" y1="139.0497" x2="203.0246" y2="139.0497">
			<stop  offset="0.0063" style="stop-color:#FFFFFF"/>
			<stop  offset="0.9983" style="stop-color:#573027"/>
		</linearGradient>
		<polygon style="opacity:0.42;fill:url(#SVGID_00000158723509340128982860000017895435324833011385_);" points="99.427,98.661 
			99.252,98.906 156.55,179.428 156.567,179.439 138.861,111.514 		"/>
		
			<linearGradient id="SVGID_00000139252294863023159990000006647154129183589560_" gradientUnits="userSpaceOnUse" x1="99.2301" y1="139.1676" x2="156.5499" y2="139.1676">
			<stop  offset="0" style="stop-color:#855950"/>
			<stop  offset="1" style="stop-color:#AD857B"/>
		</linearGradient>
		<polygon style="opacity:0.75;fill:url(#SVGID_00000139252294863023159990000006647154129183589560_);" points="99.23,98.937 
			99.23,142.266 156.55,179.428 99.252,98.907 		"/>
		
			<linearGradient id="SVGID_00000017508927570580110600000007592127710743752857_" gradientUnits="userSpaceOnUse" x1="41.8934" y1="139.1876" x2="99.2301" y2="139.1876">
			<stop  offset="0" style="stop-color:#855950"/>
			<stop  offset="1" style="stop-color:#AD857B"/>
		</linearGradient>
		<polygon style="opacity:0.75;fill:url(#SVGID_00000017508927570580110600000007592127710743752857_);" points="41.896,179.43 
			41.893,179.439 99.23,142.265 99.23,98.937 		"/>
		
			<linearGradient id="SVGID_00000071550242324121164490000004305551417514987172_" gradientUnits="userSpaceOnUse" x1="176.9874" y1="84.4719" x2="126.5533" y2="102.3473">
			<stop  offset="0" style="stop-color:#855950"/>
			<stop  offset="1" style="stop-color:#AD857B"/>
		</linearGradient>
		<polygon style="opacity:0.75;fill:url(#SVGID_00000071550242324121164490000004305551417514987172_);" points="99.427,98.661 
			138.861,111.514 193.499,67.871 192.426,67.842 99.644,98.356 		"/>
		
			<linearGradient id="SVGID_00000065070652623977664590000016571561240226773136_" gradientUnits="userSpaceOnUse" x1="90.7905" y1="105.4338" x2="25.7114" y2="170.5129">
			<stop  offset="0" style="stop-color:#FFFFFF"/>
			<stop  offset="0.9939" style="stop-color:#CDADA4"/>
		</linearGradient>
		<polygon style="fill:url(#SVGID_00000065070652623977664590000016571561240226773136_);" points="99.23,98.876 99.009,98.565 
			59.596,111.527 41.896,179.43 99.23,98.937 		"/>
		
			<linearGradient id="SVGID_00000087378472021674800990000012355430913932416672_" gradientUnits="userSpaceOnUse" x1="86.1391" y1="30.5469" x2="113.4118" y2="124.9526">
			<stop  offset="0.0164" style="stop-color:#FFFFFF"/>
			<stop  offset="0.9939" style="stop-color:#CDADA4"/>
		</linearGradient>
		<polygon style="fill:url(#SVGID_00000087378472021674800990000012355430913932416672_);" points="99.07,98.545 99.23,98.492 
			99.23,4.601 75.766,65.902 98.972,98.513 		"/>
		
			<linearGradient id="SVGID_00000163049657327655406910000004602648683017734078_" gradientUnits="userSpaceOnUse" x1="51.9666" y1="82.6812" x2="51.9666" y2="51.0367">
			<stop  offset="0.0063" style="stop-color:#FFFFFF"/>
			<stop  offset="0.9983" style="stop-color:#573027"/>
		</linearGradient>
		<polygon style="opacity:0.26;fill:url(#SVGID_00000163049657327655406910000004602648683017734078_);" points="75.766,65.902 
			75.745,65.958 4.962,67.871 4.962,67.871 98.972,98.513 		"/>
		
			<linearGradient id="SVGID_00000111165543741447879290000014478822946679413378_" gradientUnits="userSpaceOnUse" x1="90.1171" y1="89.6991" x2="33.7199" y2="89.6991">
			<stop  offset="0" style="stop-color:#855950"/>
			<stop  offset="1" style="stop-color:#AD857B"/>
		</linearGradient>
		<polygon style="opacity:0.75;fill:url(#SVGID_00000111165543741447879290000014478822946679413378_);" points="98.972,98.513 
			4.962,67.871 59.6,111.514 59.596,111.527 99.009,98.565 		"/>
	</g>
</g>
</svg>
